<svg id="Capa_1" data-name="Capa 1" xmlns="http://www.w3.org/2000/svg" viewBox="0 0 565.17 277.53"><defs><style>.cls-1{fill:#fff;}</style></defs><path class="cls-1" d="M319.73,120.46q-4.22-1.32-12.89-1.31H280.92L267.13,166h15.66l5.12-17.39h10.83a64.28,64.28,0,0,0,10.52-.63,30.89,30.89,0,0,0,7.56-2.5,20.84,20.84,0,0,0,7-5.18,18.12,18.12,0,0,0,3.92-6.75q1.46-4.94-1.17-8.35A13.55,13.55,0,0,0,319.73,120.46Zm-7.64,13.41a8.06,8.06,0,0,1-3.58,4.3c-1.91,1.27-4.79,1.89-8.61,1.89h-10l3.66-12.42h10c3.51,0,5.95.57,7.33,1.69A3.91,3.91,0,0,1,312.09,133.87Zm41.29,25.58a9.06,9.06,0,0,1-6.07-1.89c-1.47-1.25-1.84-3.12-1.12-5.59.14-.46.31-1,.53-1.61H378q3-10.34-2.3-15.05c-3.54-3.14-8.46-4.7-14.72-4.7a34.12,34.12,0,0,0-18.52,5.06A23.25,23.25,0,0,0,331.93,149q-1.64,5.53.5,9.52a13.71,13.71,0,0,0,6.59,6.07q4.49,2.07,11.75,2.07,16.67,0,25.65-12l-12.8-.7Q360.54,159.45,353.38,159.45Zm6.19-22.16c5,0,7.08,2.37,6.15,7.13h-17.3Q351.48,137.28,359.57,137.29Zm48.89,14.65-3.31-20.61H390L397.49,166a10.46,10.46,0,0,1-3.12,3.19c-1.18.76-3.2,1.13-6,1.13a53.58,53.58,0,0,1-6.91-.48l-2.31,7.86a63.16,63.16,0,0,0,6.77.41,27.63,27.63,0,0,0,9.91-1.5,18.53,18.53,0,0,0,6.37-4,76.49,76.49,0,0,0,6.74-8l25-33.23H423.53Zm56-31.53-12.58.67-4.16,10.25h-8.53l-2.35,7.95h7.72l-4.76,16.13c-1.25,4.27-.88,7.24,1.15,8.86s6,2.45,12,2.45a89,89,0,0,0,9.23-.75l2.24-7.59c-1.75.09-3.29.15-4.6.15q-4.26,0-5.16-.93c-.57-.62-.6-1.84-.05-3.66L459,139.28h10.45l2.33-7.95H461.3Zm40.81,10.2a34.11,34.11,0,0,0-18.51,5.06q-8.15,5.09-10.55,13.36-1.65,5.53.48,9.52a13.83,13.83,0,0,0,6.6,6.07q4.47,2.07,11.75,2.07,16.68,0,25.64-12l-12.8-.7q-3,5.46-10.23,5.46a9,9,0,0,1-6.07-1.89c-1.47-1.25-1.85-3.12-1.12-5.59.14-.46.31-1,.52-1.61h31.32q3-10.34-2.29-15.05T505.31,130.61ZM510,144.42H492.72q3.06-7.14,11.17-7.13Q511.44,137.29,510,144.42Z"/><path class="cls-1" d="M440,74.64l-3.65.33-1.68,5.75h-3.72l-.88,2.87h3.64L430.31,94.9a37.25,37.25,0,0,0-1.26,4.94c-.46,3.49,1.28,5.23,5.24,5.23.61,0,1.57-.06,2.89-.2l.68-.08.78-2.94c-1.49.16-2.58.24-3.29.24-2,0-2.89-.89-2.66-2.63a22.47,22.47,0,0,1,.75-3l3.9-12.91h5.39l.87-2.87h-5.41Zm-64.57,5.53a12,12,0,0,0-9.19,4.31,17.67,17.67,0,0,0-4.64,9.78c-.42,3.22.08,5.86,1.52,7.91a7.49,7.49,0,0,0,6.59,3.09,11.94,11.94,0,0,0,9.2-4.36,17.79,17.79,0,0,0,4.58-9.66c.45-3.43-.05-6.12-1.52-8.1A7.59,7.59,0,0,0,375.41,80.17Zm1,18.56c-1.69,2.51-3.81,3.75-6.33,3.75a4.6,4.6,0,0,1-4-1.83q-1.32-1.82-.87-5.37a18.84,18.84,0,0,1,3.15-8.35c1.69-2.48,3.77-3.72,6.27-3.72a5,5,0,0,1,3.9,1.63c1,1.09,1.35,2.85,1,5.31A19.57,19.57,0,0,1,376.41,98.73Zm46.48-17A11,11,0,0,0,416.36,80c-4.86,0-8.48,1.81-10.82,5.41l3.28,1.47a8.33,8.33,0,0,1,7.42-4c3.65,0,5.28,1.51,4.89,4.51a19.31,19.31,0,0,1-.59,2.49c-1.9-.09-3.07-.13-3.58-.13-5.56,0-9.48.8-11.73,2.44a8.6,8.6,0,0,0-3.83,5.88,6.14,6.14,0,0,0,1.46,5.13,6.72,6.72,0,0,0,5.21,2c3.55,0,6.76-1.78,9.62-5.31a14.19,14.19,0,0,0-.87,3.45c-.05.31-.09.72-.14,1.2h3.74c0-.54,0-.87.05-1a33.66,33.66,0,0,1,1.06-4.4c2.19-7.37,3.31-11.49,3.42-12.36A4.92,4.92,0,0,0,422.89,81.77Zm-7.71,17.84a9.41,9.41,0,0,1-6.21,2.7,3.81,3.81,0,0,1-3-1.07,3.46,3.46,0,0,1-.74-2.88q.76-5.77,11-5.77c1,0,2.1,0,3.22.13A14.74,14.74,0,0,1,415.18,99.61ZM404.61,80.07c-.29,0-.56,0-.79,0a8.63,8.63,0,0,0-5.14,1.65A19.49,19.49,0,0,0,394,87l2-6.25h-3.65l-7.12,23.84h3.66l1.6-5.34a46,46,0,0,1,3.12-8.52A22.19,22.19,0,0,1,396.14,87,10.48,10.48,0,0,1,399,84.63a7.46,7.46,0,0,1,3.67-.82l.89,0Zm-52.77.1c-2.85,0-5.49,1.44-7.91,4.36l3.59-12h-3.7l-9.56,32.08h1.59l2.69-4.22c1.2,3.25,3.47,4.88,6.78,4.88s6.27-1.52,8.77-4.58a20,20,0,0,0,4.53-10.37q.6-4.59-1.2-7.34A6.17,6.17,0,0,0,351.84,80.17Zm-.41,18.49c-1.7,2.58-3.71,3.87-6,3.87a4.65,4.65,0,0,1-3.82-1.83,6.55,6.55,0,0,1-1-5.06,18.08,18.08,0,0,1,3.52-8.37c2-2.68,4.12-4,6.46-4A3.79,3.79,0,0,1,353.91,85a7,7,0,0,1,.75,4.82A20.72,20.72,0,0,1,351.43,98.66ZM297.8,72.48h-3.91l-9.55,32.08h19.82l1-3.41H289.26Zm32.1,9.29A11,11,0,0,0,323.37,80q-7.31,0-10.84,5.41l3.29,1.47a8.31,8.31,0,0,1,7.4-4c3.67,0,5.29,1.51,4.89,4.51a16.23,16.23,0,0,1-.58,2.49c-1.88-.09-3.08-.13-3.57-.13-5.56,0-9.47.8-11.73,2.44a8.55,8.55,0,0,0-3.82,5.88,6.07,6.07,0,0,0,1.45,5.13,6.7,6.7,0,0,0,5.19,2c3.56,0,6.76-1.78,9.63-5.31a15.17,15.17,0,0,0-.87,3.45c0,.31-.08.72-.14,1.2h3.74c0-.54,0-.87.06-1a34.94,34.94,0,0,1,1-4.4Q331.79,88.1,332,86.79A4.94,4.94,0,0,0,329.9,81.77Zm-7.73,17.84a9.35,9.35,0,0,1-6.2,2.7,3.77,3.77,0,0,1-3-1.07,3.46,3.46,0,0,1-.74-2.88q.75-5.77,11-5.77c1,0,2.11,0,3.23.13A14.68,14.68,0,0,1,322.17,99.61ZM534.59,92a15.5,15.5,0,0,0-3.69-1.24l-1.43-.34a11,11,0,0,1-3.74-1.38,2.33,2.33,0,0,1-.71-2.24,3.85,3.85,0,0,1,1.64-2.59,5.65,5.65,0,0,1,3.58-1.09c3.12,0,5,1.32,5.73,4l3.22-1.3q-1.37-5.61-8.53-5.6a10,10,0,0,0-6.55,2.11,7.73,7.73,0,0,0-2.94,5.07,5,5,0,0,0,2.74,5.33,19.84,19.84,0,0,0,4,1.35l1.22.31a7.81,7.81,0,0,1,3.61,1.5,2.55,2.55,0,0,1,.59,2.19,4.31,4.31,0,0,1-1.85,3,7,7,0,0,1-4.23,1.17c-3.67,0-5.85-1.57-6.59-4.7l-3.54,1.16c.94,2.72,2.26,4.49,4,5.28a13,13,0,0,0,5.66,1.2,11.07,11.07,0,0,0,7.13-2.24,8.12,8.12,0,0,0,3.2-5.41,5.61,5.61,0,0,0-.5-3.34A4.78,4.78,0,0,0,534.59,92ZM479.37,81.68A19.5,19.5,0,0,0,474.68,87l2-6.25H473l-7.13,23.84h3.68l1.59-5.34a46.14,46.14,0,0,1,3.11-8.52A22.2,22.2,0,0,1,476.83,87a10.48,10.48,0,0,1,2.81-2.32,7.47,7.47,0,0,1,3.66-.82l.89,0,1.11-3.76c-.29,0-.56,0-.79,0A8.66,8.66,0,0,0,479.37,81.68Zm2.84,22.88h3.7L493,80.72h-3.7ZM508.5,80.17a12.08,12.08,0,0,0-9.19,4.31,17.79,17.79,0,0,0-4.63,9.78,10.84,10.84,0,0,0,1.52,7.91q2.15,3.09,6.6,3.09a12,12,0,0,0,9.2-4.36,17.94,17.94,0,0,0,4.58-9.66c.45-3.43-.06-6.12-1.53-8.1A7.6,7.6,0,0,0,508.5,80.17Zm1,18.56c-1.7,2.51-3.81,3.75-6.34,3.75a4.59,4.59,0,0,1-4-1.83q-1.35-1.82-.88-5.37a18.84,18.84,0,0,1,3.15-8.35q2.53-3.72,6.28-3.72a5,5,0,0,1,3.88,1.63c1,1.09,1.36,2.85,1,5.31A19.57,19.57,0,0,1,509.51,98.73ZM490,76.83h4.78l1.3-4.35H491.3Zm-33.91,3.34a12.05,12.05,0,0,0-9.19,4.31,17.67,17.67,0,0,0-4.64,9.78,10.85,10.85,0,0,0,1.53,7.91c1.43,2.06,3.62,3.09,6.6,3.09a12,12,0,0,0,9.2-4.36,17.92,17.92,0,0,0,4.57-9.66c.44-3.43-.05-6.12-1.52-8.1A7.61,7.61,0,0,0,456.09,80.17Zm1,18.56c-1.69,2.51-3.8,3.75-6.33,3.75a4.59,4.59,0,0,1-4-1.83q-1.35-1.82-.87-5.37a18.93,18.93,0,0,1,3.13-8.35c1.7-2.48,3.79-3.72,6.3-3.72a5,5,0,0,1,3.89,1.63c1,1.09,1.36,2.85,1,5.31A19.6,19.6,0,0,1,457.09,98.73Z"/><path class="cls-1" d="M239.06,97H226.45a96.29,96.29,0,0,1-86,124.42v12.22A108.12,108.12,0,0,0,239.06,97ZM134.38,29.1a96,96,0,0,1,72,32.48l8.56-8.76A108.4,108.4,0,0,0,26.3,116.09H38.52A96.34,96.34,0,0,1,134.38,29.1Zm7.93,60.78h13.62V83h65.52v6.88h13.62V69.38H142.31ZM38.2,128.31H26a108.37,108.37,0,0,0,102.3,105.37V221.46A96.2,96.2,0,0,1,38.2,128.31Zm148.67,38.91c9.41-12.38,12.12-25.36,12.19-32.5V92H185.45v42.71c.08,3.65-2.13,15-9.37,24.19-6.71,8.54-17.22,16.06-35.65,17.31v13.67C162.93,188.67,178.16,178.69,186.87,167.22ZM69.7,89.13v45.59c.15,7,3.52,19.57,13.43,32.08,8.88,11.12,23.7,21.11,45.08,22.95V176.1c-17.08-1.77-27.53-9.4-34.49-17.88-7.86-9.42-10.55-21.12-10.38-23.5V89.13ZM127.43,73c-6.65-4.68-14.2-5.71-20.42-5.76H63V80.84H107c4.58,0,9.44,1,12.52,3.22s5.38,5.41,5.52,13.59c-.11,7.94-2.74,11.45-6.13,14.09A21,21,0,0,1,107,115.39h-14V129h14a34.29,34.29,0,0,0,20-6.28c6.7-4.75,11.84-13.52,11.72-25.08C138.82,86.3,134.16,77.6,127.43,73Z"/></svg>