<?xml version="1.0" encoding="UTF-8"?>
<!DOCTYPE svg PUBLIC "-//W3C//DTD SVG 1.1//EN" "http://www.w3.org/Graphics/SVG/1.1/DTD/svg11.dtd">
<svg xmlns="http://www.w3.org/2000/svg" version="1.1" width="250px" height="250px" style="shape-rendering:geometricPrecision; text-rendering:geometricPrecision; image-rendering:optimizeQuality; fill-rule:evenodd; clip-rule:evenodd" xmlns:xlink="http://www.w3.org/1999/xlink">
<g><path style="opacity:0.996" fill="#fefefe" d="M 247.5,64.5 C 206.467,75.7793 165.467,87.446 124.5,99.5C 83.5588,87.6809 42.5588,76.0142 1.5,64.5C 1.5,43.8333 1.5,23.1667 1.5,2.5C 83.5,2.5 165.5,2.5 247.5,2.5C 247.5,23.1667 247.5,43.8333 247.5,64.5 Z"/></g>
<g><path style="opacity:1" fill="#f4f7f7" d="M 138.5,29.5 C 151.032,38.958 154.199,50.958 148,65.5C 139.367,77.3792 127.867,81.5459 113.5,78C 111.416,77.3028 109.749,76.1361 108.5,74.5C 93.9917,59.9501 93.9917,45.4501 108.5,31C 118.313,24.4034 128.313,23.9034 138.5,29.5 Z"/></g>
<g><path style="opacity:1" fill="#89d333" d="M 155.5,50.5 C 153.063,42.8669 148.729,36.3669 142.5,31C 141.255,30.2086 139.922,29.7086 138.5,29.5C 128.313,23.9034 118.313,24.4034 108.5,31C 93.9917,45.4501 93.9917,59.9501 108.5,74.5C 105.269,72.7801 102.436,70.4468 100,67.5C 96.9748,63.1228 94.8081,58.4561 93.5,53.5C 95.0153,34.3177 105.349,23.651 124.5,21.5C 142.244,23.2436 152.577,32.9103 155.5,50.5 Z"/></g>
<g><path style="opacity:1" fill="#133047" d="M 120.5,27.5 C 128.159,26.0099 130.492,28.8432 127.5,36C 125.19,36.4966 122.857,36.6633 120.5,36.5C 120.5,33.5 120.5,30.5 120.5,27.5 Z"/></g>
<g><path style="opacity:1" fill="#9dadb7" d="M 122.5,29.5 C 123.978,29.238 125.311,29.5713 126.5,30.5C 125.833,30.8333 125.167,31.1667 124.5,31.5C 123.287,31.2528 122.62,30.5862 122.5,29.5 Z"/></g>
<g><path style="opacity:1" fill="#b6c2c9" d="M 122.5,32.5 C 123.978,32.238 125.311,32.5713 126.5,33.5C 125.833,33.8333 125.167,34.1667 124.5,34.5C 123.287,34.2528 122.62,33.5862 122.5,32.5 Z"/></g>
<g><path style="opacity:1" fill="#273d53" d="M 123.5,37.5 C 124.496,37.4142 125.329,37.7476 126,38.5C 127.167,40.8333 128.333,43.1667 129.5,45.5C 129.167,45.8333 128.833,46.1667 128.5,46.5C 125.394,45.6721 122.394,45.3388 119.5,45.5C 120.847,42.8068 122.18,40.1401 123.5,37.5 Z"/></g>
<g><path style="opacity:1" fill="#142d44" d="M 131.5,48.5 C 133.857,48.3367 136.19,48.5034 138.5,49C 130.576,49.8711 130.576,51.0377 138.5,52.5C 136.577,53.3078 134.577,53.8078 132.5,54C 140.22,55.3942 139.886,56.2276 131.5,56.5C 131.5,53.8333 131.5,51.1667 131.5,48.5 Z"/></g>
<g><path style="opacity:1" fill="#33485e" d="M 100.5,48.5 C 107.659,46.8203 109.993,49.3203 107.5,56C 105.19,56.4966 102.857,56.6633 100.5,56.5C 100.5,53.8333 100.5,51.1667 100.5,48.5 Z"/></g>
<g><path style="opacity:1" fill="#223c53" d="M 141.5,48.5 C 143.857,48.3367 146.19,48.5034 148.5,49C 149.809,50.7507 149.475,52.2507 147.5,53.5C 147.977,54.4776 148.643,55.3109 149.5,56C 149,56.1667 148.5,56.3333 148,56.5C 146.832,55.4911 145.665,54.4911 144.5,53.5C 143.833,54.5 143.167,55.5 142.5,56.5C 141.52,53.9135 141.187,51.2469 141.5,48.5 Z"/></g>
<g><path style="opacity:1" fill="#233d53" d="M 113.5,48.5 C 114.675,48.281 115.675,48.6143 116.5,49.5C 117.5,51.5 118.5,53.5 119.5,55.5C 119.167,55.8333 118.833,56.1667 118.5,56.5C 116.167,55.1667 113.833,55.1667 111.5,56.5C 110.883,53.6668 111.55,51.0002 113.5,48.5 Z"/></g>
<g><path style="opacity:1" fill="#0e2940" d="M 119.5,49.5 C 119.735,48.9033 120.235,48.5699 121,48.5C 122.168,49.5089 123.335,50.5089 124.5,51.5C 125.665,50.5089 126.832,49.5089 128,48.5C 128.5,48.6667 129,48.8333 129.5,49C 127.21,51.0795 125.543,53.5795 124.5,56.5C 123.55,53.58 121.884,51.2467 119.5,49.5 Z"/></g>
<g><path style="opacity:0.999" fill="#67b133" d="M 1.5,64.5 C 42.5588,76.0142 83.5588,87.6809 124.5,99.5C 165.467,87.446 206.467,75.7793 247.5,64.5C 247.5,67.1667 247.5,69.8333 247.5,72.5C 206.352,83.5481 165.352,95.2147 124.5,107.5C 83.5263,95.6739 42.5263,84.0072 1.5,72.5C 1.5,69.8333 1.5,67.1667 1.5,64.5 Z"/></g>
<g><path style="opacity:0.999" fill="#114991" d="M 1.5,72.5 C 42.5263,84.0072 83.5263,95.6739 124.5,107.5C 165.352,95.2147 206.352,83.5481 247.5,72.5C 247.5,116.833 247.5,161.167 247.5,205.5C 206.376,217.075 165.209,228.742 124,240.5C 83.1776,228.921 42.3443,217.588 1.5,206.5C 1.5,161.833 1.5,117.167 1.5,72.5 Z"/></g>
<g><path style="opacity:1" fill="#28bdfd" d="M 138.5,29.5 C 139.922,29.7086 141.255,30.2086 142.5,31C 148.729,36.3669 153.063,42.8669 155.5,50.5C 155.624,65.7533 148.624,76.2533 134.5,82C 111.207,86.353 97.5399,76.853 93.5,53.5C 94.8081,58.4561 96.9748,63.1228 100,67.5C 102.436,70.4468 105.269,72.7801 108.5,74.5C 109.749,76.1361 111.416,77.3028 113.5,78C 127.867,81.5459 139.367,77.3792 148,65.5C 154.199,50.958 151.032,38.958 138.5,29.5 Z"/></g>
<g><path style="opacity:1" fill="#173249" d="M 120.5,68.5 C 123.119,68.2317 125.619,68.565 128,69.5C 128.651,71.235 128.485,72.9017 127.5,74.5C 127.977,75.4776 128.643,76.3109 129.5,77C 127.326,76.0628 124.993,75.2294 122.5,74.5C 122.719,75.675 122.386,76.675 121.5,77.5C 120.516,74.5719 120.183,71.5719 120.5,68.5 Z"/></g>
<g><path style="opacity:1" fill="#b4c1c8" d="M 122.5,70.5 C 123.978,70.238 125.311,70.5713 126.5,71.5C 125.833,71.8333 125.167,72.1667 124.5,72.5C 123.287,72.2528 122.62,71.5862 122.5,70.5 Z"/></g>
<g><path style="opacity:1" fill="#183047" d="M 120.5,58.5 C 123.247,58.1866 125.914,58.52 128.5,59.5C 126.577,60.3078 124.577,60.8078 122.5,61C 130.424,61.8711 130.424,63.0377 122.5,64.5C 124.5,65.1667 126.5,65.8333 128.5,66.5C 125.914,67.48 123.247,67.8134 120.5,67.5C 120.5,64.5 120.5,61.5 120.5,58.5 Z"/></g>
<g><path style="opacity:1" fill="#f7c320" d="M 81.5,144.5 C 83.5,144.5 85.5,144.5 87.5,144.5C 87.5,151.833 87.5,159.167 87.5,166.5C 91.8333,166.5 96.1667,166.5 100.5,166.5C 100.5,168.167 100.5,169.833 100.5,171.5C 94.1667,171.5 87.8333,171.5 81.5,171.5C 81.5,162.5 81.5,153.5 81.5,144.5 Z"/></g>
<g><path style="opacity:1" fill="#0037a1" d="M 132.5,144.5 C 132.5,153.5 132.5,162.5 132.5,171.5C 131.611,167.178 130.944,162.678 130.5,158C 130.944,153.322 131.611,148.822 132.5,144.5 Z"/></g>
<g><path style="opacity:1" fill="#edc02a" d="M 31.5,143.5 C 36.0803,143.113 40.4136,143.947 44.5,146C 46.4506,147.734 47.4506,149.901 47.5,152.5C 45.1667,152.5 42.8333,152.5 40.5,152.5C 39.6178,148.857 37.2845,147.69 33.5,149C 32.0091,151.022 32.3424,152.688 34.5,154C 39.8019,154.648 44.3019,156.815 48,160.5C 48.904,166.52 46.404,170.354 40.5,172C 31.8477,174.181 26.5144,171.014 24.5,162.5C 26.8333,162.5 29.1667,162.5 31.5,162.5C 31.2965,164.39 31.9632,165.89 33.5,167C 35.8333,167.667 38.1667,167.667 40.5,167C 41.8333,165.333 41.8333,163.667 40.5,162C 36.3921,160.973 32.3921,159.64 28.5,158C 24.0488,152.09 25.0488,147.257 31.5,143.5 Z"/></g>
<g><path style="opacity:1" fill="#eec227" d="M 110.5,143.5 C 126.841,143.649 132.341,151.316 127,166.5C 125.316,168.351 123.483,170.018 121.5,171.5C 121.167,171.167 120.833,170.833 120.5,170.5C 126.428,165.141 127.928,158.808 125,151.5C 126.4,157.097 125.234,162.097 121.5,166.5C 117.616,161.892 117.616,157.392 121.5,153C 119.65,153.595 117.65,154.095 115.5,154.5C 115.134,149.532 114.634,149.866 114,155.5C 111.512,157.743 108.846,159.743 106,161.5C 104.639,154.723 107.139,149.89 113.5,147C 108.882,147.938 105.715,150.771 104,155.5C 103.667,158.5 103.333,161.5 103,164.5C 101.412,160.691 101.078,156.691 102,152.5C 104.362,148.973 107.196,145.973 110.5,143.5 Z"/></g>
<g><path style="opacity:1" fill="#f2c226" d="M 132.5,144.5 C 135.833,144.5 139.167,144.5 142.5,144.5C 143.827,150.314 145.66,155.981 148,161.5C 149.944,155.835 151.778,150.168 153.5,144.5C 156.5,144.5 159.5,144.5 162.5,144.5C 162.5,153.5 162.5,162.5 162.5,171.5C 160.833,171.5 159.167,171.5 157.5,171.5C 157.829,165.463 157.496,159.463 156.5,153.5C 155.893,153.624 155.56,153.957 155.5,154.5C 154.032,160.237 152.365,165.903 150.5,171.5C 148.533,171.739 146.699,171.406 145,170.5C 143.197,164.758 141.197,159.091 139,153.5C 138.501,159.491 138.334,165.491 138.5,171.5C 136.5,171.5 134.5,171.5 132.5,171.5C 132.5,162.5 132.5,153.5 132.5,144.5 Z"/></g>
<g><path style="opacity:1" fill="#f6c421" d="M 213.5,160.5 C 213.56,161.043 213.893,161.376 214.5,161.5C 215.495,155.872 215.829,150.206 215.5,144.5C 217.167,144.5 218.833,144.5 220.5,144.5C 220.5,153.5 220.5,162.5 220.5,171.5C 217.635,171.945 215.135,171.278 213,169.5C 210,164.5 207,159.5 204,154.5C 203.501,160.157 203.334,165.824 203.5,171.5C 201.5,171.5 199.5,171.5 197.5,171.5C 197.5,162.5 197.5,153.5 197.5,144.5C 199.924,144.192 202.257,144.526 204.5,145.5C 207.763,150.362 210.763,155.362 213.5,160.5 Z"/></g>
<g><path style="opacity:1" fill="#7d825c" d="M 215.5,144.5 C 215.829,150.206 215.495,155.872 214.5,161.5C 213.893,161.376 213.56,161.043 213.5,160.5C 214.167,155.167 214.833,149.833 215.5,144.5 Z"/></g>
<g><path style="opacity:1" fill="#938d54" d="M 224.5,141.5 C 227.524,141.364 229.024,142.698 229,145.5C 224.415,147.413 222.915,146.079 224.5,141.5 Z"/></g>
<g><path style="opacity:1" fill="#f3c225" d="M 175.5,143.5 C 189.642,142.812 195.475,149.478 193,163.5C 189.485,170.903 183.652,173.737 175.5,172C 167.66,167.849 164.827,161.349 167,152.5C 168.688,148.315 171.521,145.315 175.5,143.5 Z"/></g>
<g><path style="opacity:1" fill="#f3c225" d="M 59.5,143.5 C 76.6087,144.477 81.442,152.81 74,168.5C 68.1744,173.082 62.0078,173.582 55.5,170C 49.9585,163.424 49.1252,156.258 53,148.5C 54.9651,146.45 57.1318,144.783 59.5,143.5 Z"/></g>
<g><path style="opacity:1" fill="#1f4a90" d="M 60.5,149.5 C 70.3188,149.445 73.4855,154.112 70,163.5C 64.7117,169.176 60.3784,168.509 57,161.5C 55.593,156.599 56.7597,152.599 60.5,149.5 Z"/></g>
<g><path style="opacity:1" fill="#1f4a90" d="M 177.5,148.5 C 185.513,149.169 188.679,153.502 187,161.5C 184.975,166.145 181.475,167.645 176.5,166C 170.942,159.842 171.275,154.009 177.5,148.5 Z"/></g>
<g><path style="opacity:1" fill="#af9c44" d="M 155.5,154.5 C 155.56,153.957 155.893,153.624 156.5,153.5C 157.496,159.463 157.829,165.463 157.5,171.5C 156.833,165.833 156.167,160.167 155.5,154.5 Z"/></g>
<g><path style="opacity:0.908" fill="#66b231" d="M 247.5,205.5 C 247.5,208.5 247.5,211.5 247.5,214.5C 206.619,226.238 165.619,237.571 124.5,248.5C 83.3814,237.571 42.3814,226.238 1.5,214.5C 1.5,211.833 1.5,209.167 1.5,206.5C 42.3443,217.588 83.1776,228.921 124,240.5C 165.209,228.742 206.376,217.075 247.5,205.5 Z"/></g>
</svg>
