<svg xmlns="http://www.w3.org/2000/svg" viewBox="0 0 120.36 123.68"><defs><style>.cls-1{fill:#00471a;}</style></defs><title>Recurso 2brand CampoFertil</title><g id="Capa_2" data-name="Capa 2"><g id="Capa_1-2" data-name="Capa 1"><path class="cls-1" d="M31,104.93c18.23-8,26.58-25.87,35.31-43.33,4.3-8.59,8.29-17.4,13.63-25.28,5.47-8.06,12.16-13.85,21.8-15.12-2,4.25-3.72,8-6.33,13.67,9-4.62,15.15-12.7,25-11.85-2.93,2.83-5.73,5.15-8.13,7.92-4.1,4.71-5.67,9.64-1.91,16.07,5.87,10,5.61,20.43-.31,30.5-9.83,16.71-22.54,30.19-36.92,41.6-7.62,6-16,5.83-24.12.91C42.57,116.16,36.93,111.09,31,104.93Z"/><path class="cls-1" d="M18.13,102.4c2.23-5.22,5.28-8.91,5.21-15.22C16.42,94.38,9.67,100.62,0,100.73c1.08-2.8,3.19-3.62,4.77-5,7.47-6.81,8.12-10.92,3.65-20.8-4.19-9.25-4.34-18.43.77-27.48C19,30,32,16.27,46.77,4.55c7.42-5.89,15.59-5.81,23.6-1.2C77.05,7.2,82.79,12.54,89,18.7c-15.94,7.07-24.48,21.57-32.26,37-5.38,10.67-10.17,21.75-16.8,31.57C34.59,95.18,28.11,100.94,18.13,102.4Z"/></g></g></svg>