<svg width="265" height="183" viewBox="0 0 265 183" fill="none" xmlns="http://www.w3.org/2000/svg">
<g clip-path="url(#clip0_2_3450)">
<path d="M113.302 75.0086C127.813 69.2899 134.471 56.5156 141.424 44.0345C144.841 37.894 148.027 31.5962 152.272 25.9632C156.628 20.2016 161.956 16.0626 169.634 15.1548L164.593 24.9267C171.761 21.6241 176.667 15.8482 184.504 16.4558C182.17 18.4788 179.94 20.1372 178.029 22.1174C174.771 25.4843 173.521 29.0085 176.515 33.6049C181.182 40.7533 180.975 48.2092 176.26 55.4076C168.431 67.3527 158.317 76.9888 146.864 85.1451C140.787 89.4342 134.121 89.3127 127.654 85.7956C122.556 83.0363 118.057 79.4121 113.302 75.0086Z" fill="#00471A"/>
<path d="M103.083 73.2001C104.86 69.4686 107.297 66.8308 107.233 62.3201C101.722 67.467 96.3456 71.9276 88.644 72.0063C89.5121 70.0047 91.1846 69.4185 92.443 68.4321C98.3924 63.564 98.9101 60.626 95.35 53.5633C92.0129 46.951 91.8935 40.3887 95.9633 33.9194C103.784 21.4454 114.162 11.6306 125.894 3.25261C131.803 -0.957824 138.31 -0.900636 144.698 2.39479C150.01 5.14694 154.589 8.96421 159.519 13.3676C146.824 18.4216 140.022 28.7868 133.834 39.8169C129.549 47.4442 125.734 55.3647 120.446 62.3845C116.193 68.0389 111.032 72.1564 103.083 73.2001Z" fill="#00471A"/>
<path d="M132.209 172.492C146.944 172.492 161.678 172.728 176.412 172.356C181.087 172.234 180.585 174.679 180.561 177.66C180.537 180.641 181.175 183.043 176.452 183C146.983 182.733 117.515 182.733 88.0467 183C83.3875 183.043 83.8813 180.684 83.9052 177.696C83.929 174.708 83.2839 172.234 88.0148 172.356C102.741 172.728 117.459 172.492 132.209 172.492Z" fill="#00471A"/>
<path d="M55.6075 143.477C55.066 147.129 54.1899 150.525 49.4192 151.569C49.4192 139.638 49.4192 128.136 49.4192 116.627C49.4192 115.14 49.4829 113.839 51.4342 113.81C53.3855 113.782 55.4164 113.453 56.3881 116.127C58.3473 121.424 60.5694 126.62 63.1817 133.111C65.6507 127.2 67.9046 122.389 69.6647 117.385C70.732 114.375 72.4204 113.21 75.3195 113.81C78.5052 114.525 76.984 117.17 77.0159 118.893C77.1752 127.857 77.0159 136.828 77.1035 145.793C77.1035 148.187 76.8168 149.553 73.9177 149.681C70.6762 149.817 70.8753 148.016 70.8913 145.828C70.947 140.824 70.8913 135.821 70.8913 129.816C68.2949 133.454 67.7055 136.964 66.2639 140.01C65.579 141.439 65.6666 143.584 63.3251 143.705C60.9835 143.827 60.9357 141.697 60.3304 140.224C59.3269 137.858 58.3792 135.47 57.4075 133.076C55.6474 132.468 56.0137 133.883 55.95 134.748C55.7509 137.672 56.2925 140.603 55.6075 143.477Z" fill="#01481B"/>
<path d="M196.179 129.773C202.009 130.581 203.427 128.022 203.244 123.804C203.109 120.744 201.826 119.022 198.728 118.657C196.092 118.343 194.706 118.779 194.802 122.067C195.025 129.83 194.937 137.608 194.802 145.378C194.802 147.065 196.084 149.76 192.317 149.588C189.473 149.46 188.589 148.459 188.645 145.557C188.812 136.056 188.781 126.556 188.645 117.056C188.645 114.654 189.274 113.482 191.751 113.653C194.228 113.825 196.825 113.746 199.357 113.882C203.483 114.111 207.322 115.312 208.612 119.736C209.95 124.29 210.484 129.079 206.024 132.468C204.096 133.898 204.821 135.327 205.458 136.95C207.17 141.368 208.803 145.821 210.89 151.39C199.612 148.066 201.404 137.357 196.179 129.773Z" fill="#02481B"/>
<path d="M6.37155 135.585C6.37155 139.209 6.37155 142.833 6.37155 146.45C6.37155 148.43 6.70605 150.482 9.20688 150.525C11.4051 150.561 13.5316 149.453 13.5236 147.072C13.5236 142.969 16.3032 142.826 18.5571 143.569C21.5278 144.556 19.8314 147.344 19.2261 149.167C17.5854 154.113 11.4369 157.659 6.6503 156.63C3.18578 155.886 0.653097 153.956 0.422129 150.117C-0.163252 140.646 -0.163252 131.152 0.422129 121.681C0.545957 119.397 1.67357 117.251 3.55773 115.713C5.44188 114.175 7.92881 113.37 10.4732 113.474C15.5306 113.71 19.5765 117.606 19.8473 122.56C19.927 124.068 20.365 126.02 17.8801 125.691C16.3749 125.491 13.8979 127.178 13.6908 123.804C13.5395 121.188 12.305 119.443 9.57324 119.701C6.6503 119.972 6.46712 122.389 6.38748 124.705C6.32376 126.611 6.28128 128.517 6.26005 130.423C6.26005 132.153 6.26005 133.876 6.26005 135.599L6.37155 135.585Z" fill="#02481B"/>
<path d="M127.67 130.974C127.67 133.04 127.59 135.12 127.67 137.186C127.869 141.282 126.961 144.806 122.891 146.529C118.431 148.409 113.995 148.452 109.837 145.621C107.846 144.263 107.121 142.19 107.137 139.802C107.137 133.762 107.058 127.714 107.257 121.681C107.424 116.777 111.39 113.624 117.093 113.467C122.588 113.31 127.064 116.448 127.51 121.145C127.813 124.39 127.566 127.692 127.566 130.974H127.67Z" fill="#01481B"/>
<path d="M34.3984 125.891C32.4471 134.719 30.7745 142.232 29.1259 149.738C28.9348 150.582 28.879 151.454 28.648 152.283C27.9233 154.821 25.5499 154.428 23.9809 154.321C21.3049 154.156 22.8738 151.819 23.1128 150.746C25.6295 139.495 28.3613 128.293 30.9418 117.056C31.3719 115.211 31.7382 113.925 34.0718 113.839C36.4054 113.753 37.2576 114.918 37.7753 117.006C40.3717 127.728 43.0477 138.387 45.6839 149.074C45.883 149.86 46.5998 150.739 45.8671 151.447C45.1344 152.155 43.9158 151.869 43.0238 151.447C40.6345 150.403 39.5035 148.402 38.946 145.892C37.5841 139.702 36.1426 133.519 34.3984 125.891Z" fill="#01481B"/>
<path d="M166.456 130.681C166.456 126.198 166.536 121.709 166.456 117.227C166.401 114.99 166.783 113.61 169.435 113.71C173.656 113.867 177.893 113.832 182.114 113.753C184.058 113.753 184.774 114.468 184.806 116.448C184.838 118.428 183.699 118.593 182.234 118.55C181.222 118.514 180.211 118.55 179.191 118.55C172.501 118.55 171.267 120.23 172.637 127.006C172.955 128.608 173.696 128.936 175.026 128.936C176.714 128.936 178.411 128.936 180.099 129.029C181.007 129.086 182.321 128.55 182.64 129.923C182.959 131.295 181.907 132.182 180.912 132.782C179.596 133.506 178.074 133.871 176.531 133.833C175.177 133.869 173.043 132.839 172.78 135.141C172.501 137.65 172.095 140.324 173.083 142.761C173.521 143.819 174.899 143.355 175.87 143.412C178.26 143.555 180.601 143.598 182.959 143.748C184.902 143.877 184.751 145.371 184.798 146.779C184.862 148.437 184.002 148.809 182.616 148.73C178.052 148.487 173.497 148.23 168.933 148.108C166.488 148.037 166.409 146.536 166.432 144.649C166.504 139.988 166.432 135.356 166.432 130.673L166.456 130.681Z" fill="#03491D"/>
<path d="M90.7944 130.981C96.4809 131.589 97.5084 128.579 97.357 124.333C97.2455 121.181 96.3296 119.036 92.8651 118.614C90.2528 118.328 88.8829 118.693 88.9466 121.981C89.1776 129.73 88.8988 137.493 89.082 145.249C89.1457 148.002 88.2856 148.681 85.6892 148.781C82.8459 148.888 82.8299 147.451 82.8459 145.342C82.9096 135.863 82.9574 126.385 82.8459 116.899C82.8459 114.454 83.5627 113.403 86.0316 113.575C88.5006 113.746 90.7625 113.682 93.12 113.868C101.61 114.525 105.632 120.63 103.099 128.929C101.299 134.848 95.8995 136.164 90.7944 130.981Z" fill="#01471B"/>
<path d="M246.658 134.391C246.658 128.672 246.658 123.003 246.658 117.313C246.658 116.255 245.981 114.689 247.646 114.289C248.896 113.989 249.884 114.875 250.704 115.769C252.448 117.67 252.783 120.001 252.775 122.488C252.775 130.073 253.077 137.686 252.639 145.249C252.408 149.316 254.137 150.324 257.418 150.56C259.106 150.682 260.771 151.032 262.459 151.139C265.645 151.339 264.896 153.734 264.928 155.679C264.976 158.609 263.001 157.223 261.743 157.108C259.56 156.894 257.394 156.515 255.228 156.179C246.61 154.828 246.61 154.828 246.61 145.778C246.637 141.956 246.653 138.16 246.658 134.391Z" fill="#01481B"/>
<path d="M231.605 116.52C231.932 119.043 230.395 119.501 228.499 119.165C224.756 118.5 224.358 120.652 224.405 123.647C224.517 130.531 224.509 137.415 224.405 144.299C224.391 145.995 224.104 147.68 223.553 149.303C223.454 149.694 223.269 150.064 223.008 150.39C222.747 150.716 222.416 150.992 222.035 151.201C221.653 151.41 221.228 151.549 220.786 151.608C220.344 151.668 219.893 151.647 219.459 151.547C217.564 151.133 218.368 149.288 218.352 148.08C218.281 139.824 218.201 131.56 218.352 123.297C218.416 120.201 217.962 118.293 214.314 118.843C212.435 119.136 211.057 118.679 211.192 116.141C211.312 113.889 212.61 113.761 214.251 113.775C219.149 113.818 224.039 113.868 228.929 113.825C230.825 113.818 231.876 114.418 231.605 116.52Z" fill="#064B1F"/>
<path d="M149.866 147.258C145.884 146.214 144.291 143.448 144.204 139.716C144.068 132.132 144.204 124.54 144.1 116.956C144.06 114.461 144.992 113.617 147.366 113.696C151.419 113.825 155.473 113.76 159.535 113.732C161.216 113.732 162.466 113.882 162.49 116.155C162.514 118.428 161.176 118.535 159.551 118.478C158.54 118.478 157.52 118.478 156.509 118.478C150.496 118.478 148.823 120.916 150.432 126.863C151.045 129.122 152.598 128.593 154.016 128.658C155.864 128.75 157.727 128.708 159.591 128.786C160.969 128.851 161.08 129.859 161.08 130.931C161.08 132.003 160.889 132.746 159.623 133.175C156.596 134.183 152.081 130.588 150.559 135.32C149.548 138.429 150.352 142.154 150.304 145.599C150.219 146.164 150.072 146.719 149.866 147.258Z" fill="#04491D"/>
<path d="M240.661 133.855C240.661 139.573 240.661 145.228 240.661 150.911C240.661 152.34 241.202 154.271 238.566 153.892C236.647 153.613 234.441 154.163 234.472 150.839C234.592 140.503 234.472 130.166 234.512 119.829C234.483 118.289 235.046 116.788 236.105 115.576C236.484 115.047 237.038 114.636 237.688 114.402C238.339 114.167 239.055 114.12 239.737 114.268C241.386 114.697 240.661 116.262 240.677 117.32C240.709 122.832 240.669 128.343 240.661 133.855Z" fill="#02481C"/>
<path d="M121.497 130.659C121.497 133.418 121.497 136.178 121.497 138.937C121.497 141.696 119.753 142.997 117.252 142.962C114.751 142.926 113.23 141.689 113.27 138.773C113.373 133.433 113.27 128.05 113.27 122.732C113.27 120.022 114.441 118.514 117.188 118.485C120.095 118.485 121.569 119.836 121.497 122.896C121.441 125.484 121.489 128.071 121.497 130.659Z" fill="#FDFDFD"/>
</g>
<defs>
<clipPath id="clip0_2_3450">
<rect width="265" height="183" fill="white"/>
</clipPath>
</defs>
</svg>
