<svg width="220" height="171" viewBox="0 0 220 171" fill="none" xmlns="http://www.w3.org/2000/svg">
<path d="M84.7642 68.787C86.8229 65.795 88.3231 62.4686 89.1948 58.9628C84.5484 64.5125 79.6391 68.2122 72.0322 67.9281C74.3655 64.9221 77.8048 63.5479 79.5379 60.4493C81.1024 57.6481 81.4801 55.3753 79.7604 52.3759C75.1545 44.3355 76.0717 36.2819 81.0148 28.6841C87.1753 19.0111 94.967 10.4327 104.058 3.31421C110.235 -1.44925 115.036 -0.649838 121.456 3.00369C125.806 5.46801 129.245 9.06868 132.752 12.7883C130.729 14.1096 128.746 15.2988 126.831 16.6202C120.816 20.7758 117.39 26.9201 113.93 33.0049C108.799 42.0297 105.622 52.0455 99.1821 60.4229C96.1138 64.4266 92.5127 67.4789 87.5898 68.9654C87.1348 69.1426 86.6452 69.2186 86.1565 69.1877C85.6679 69.1569 85.1923 69.02 84.7642 68.787Z" fill="#2D4505"/>
<path d="M141.654 14.374C139.576 17.3353 138.129 20.6766 137.398 24.1982C142.254 18.8269 147.109 14.8563 155.155 15.1007C153.057 16.759 151.668 17.9813 150.157 19.0251C145.518 22.2162 144.385 26.8937 146.927 31.6374C150.205 37.7552 150.63 44.0118 147.521 50.4005C141.87 62.0218 132.907 71.1259 123.244 79.2984C115.886 85.5022 110.687 84.3526 102.251 78.4462C99.5531 76.5632 97.294 74.0989 94.8326 71.9319C93.6727 70.9145 93.3018 69.9895 95.0079 69.243C103.808 65.4111 108.327 57.7737 112.616 50.0173C117.633 40.8472 121.018 30.7851 127.452 22.3417C130.823 17.935 134.775 14.2551 141.654 14.374Z" fill="#2D4505"/>
<path d="M109.918 170.947C97.476 170.947 85.034 170.881 72.592 171C70.171 171 69.0246 170.564 69.4495 167.987C69.5787 166.89 69.5787 165.781 69.4495 164.684C69.3618 163.363 69.9013 162.88 71.1961 162.999C71.749 163.052 72.3155 162.999 72.8752 162.999C97.5367 162.999 122.198 163.045 146.853 162.94C149.55 162.94 150.549 163.435 150.38 166.289C150.117 170.914 150.319 170.914 145.551 170.914L109.918 170.947Z" fill="#FE6600"/>
<path d="M58.7743 140.569V123.881L58.336 123.768C57.3379 126.517 56.3129 129.245 55.3688 132.014C54.9237 133.335 54.9102 134.716 52.8197 134.656C50.9517 134.617 50.7966 133.474 50.3852 132.192C49.3197 129.12 48.0722 126.107 46.5616 122.209C46.5616 127.085 46.7099 131.082 46.5144 135.059C46.3862 137.577 46.0895 140.219 43.2302 141.527C41.8815 142.142 41.1599 142.076 41.1599 140.358C41.1869 129.479 41.1869 118.595 41.1599 107.707C41.1599 106.584 41.5241 105.976 42.684 106.221C44.2957 106.564 46.4469 105.085 47.3101 107.998C48.6588 112.477 50.4122 116.825 51.9363 121.251C52.0941 121.786 52.4564 122.24 52.9478 122.52C54.7888 117.69 56.8793 112.96 58.3427 108.044C59.361 104.688 61.7145 106.512 63.4342 106.287C65.5921 106.009 64.6817 107.952 64.6885 108.93C64.7627 118.054 64.6885 127.177 64.7829 136.301C64.8234 138.871 64.6278 140.602 61.3234 139.962C60.6895 139.823 59.8938 140.279 58.7743 140.569Z" fill="#2D4505"/>
<path d="M175.203 140.966C171.697 141.944 169.903 140.239 168.46 137.596C165.897 132.972 165.142 127.746 163.213 122.91C162.424 120.928 164.757 121.093 165.465 120.987C169.013 120.458 168.251 117.591 168.224 115.741C168.19 113.442 167.387 111.117 163.827 111.401C161.864 111.566 161.756 112.299 161.804 113.779C161.844 121.582 161.756 129.384 161.864 137.18C161.864 139.208 161.52 140.054 159.167 139.988C157.076 139.922 156.328 139.545 156.362 137.299C156.496 127.851 156.517 118.397 156.362 108.956C156.321 106.518 157.144 105.897 159.383 106.201C162.323 106.591 165.304 105.725 168.291 106.736C170.988 107.648 172.897 109.049 173.342 111.876C174.07 116.501 175.581 121.35 170.469 124.707C169.316 125.473 170.348 125.949 170.537 126.543C172.034 131.287 173.592 136.031 175.203 140.966Z" fill="#2D4505"/>
<path d="M17.2873 133.401C18.6361 141.712 12.85 147.883 5.63432 146.509C1.97926 145.815 0.239399 143.721 0.124757 138.937C-0.0415858 131.009 -0.0415858 123.081 0.124757 115.153C0.212425 111.321 1.79718 107.886 5.71524 106.412C7.32371 105.738 9.1139 105.6 10.8101 106.021C12.5063 106.441 14.0145 107.396 15.1024 108.738C16.9367 111.136 17.4627 113.957 17.5638 116.864C17.6245 118.846 15.9791 118.126 15.1294 118.021C13.9155 117.869 12.1554 119.104 11.5418 116.99C11.4734 116.552 11.4734 116.106 11.5418 115.669C11.5957 113.792 10.5302 112.306 8.84429 112.299C7.15838 112.292 6.14683 113.799 6.14683 115.675C6.18055 118.536 6.14683 121.397 6.14683 124.264C6.14683 128.558 6.22776 132.853 6.10637 137.14C6.06591 138.66 6.56494 140.08 7.81926 140.325C9.07358 140.569 10.3481 139.75 11.0225 138.184C12.4926 134.788 12.8433 134.65 17.2873 133.401Z" fill="#2D4505"/>
<path d="M106.546 122.553C106.182 125.347 106.856 128.704 106.168 132.106C105.177 137.041 100.167 139.248 95.9653 138.548C91.0627 137.728 88.7968 136.004 88.4731 130.554C88.0955 124.145 87.9134 117.664 89.0329 111.262C89.7072 107.542 93.6995 105.791 97.8401 106.029C104.071 106.379 106.533 109.247 106.546 115.391V122.553Z" fill="#2D4505"/>
<path d="M28.7111 119.923C27.3623 127.528 26.1013 134.604 24.7997 141.66C24.4288 143.694 23.451 145.036 20.9693 144.56C20.1938 144.415 19.3374 144.725 18.3191 144.851C20.7805 132.806 23.2487 120.822 25.6629 108.824C25.9934 107.172 26.398 106.029 28.529 106.181C30.3565 106.3 31.3815 106.366 31.8671 108.698C34.079 119.349 36.6753 129.913 39.1165 140.517C39.5346 142.36 38.5635 143.04 36.9113 142.439C34.6455 141.613 32.9326 140.054 32.447 137.643C31.4422 132.608 30.1407 127.627 29.6889 122.493C29.6282 121.78 29.1831 121.113 28.7111 119.923Z" fill="#2D4505"/>
<path d="M137.513 122.183C137.513 117.67 137.648 113.158 137.459 108.659C137.364 106.518 138.133 106.089 140.102 106.168C143.798 106.32 147.52 106.36 151.202 106.168C153.401 106.043 153.758 106.829 153.752 108.764C153.745 110.7 153.421 111.949 151.054 111.513C150.72 111.483 150.383 111.483 150.049 111.513C143.258 111.513 143.306 111.513 143.528 118.06C143.582 119.56 143.859 120.32 145.551 120.121C146.556 120.026 147.568 120.026 148.572 120.121C149.921 120.214 152.207 120.458 152.079 121.443C151.994 122.419 151.574 123.338 150.887 124.05C150.199 124.761 149.286 125.224 148.296 125.361C146.785 125.559 144.587 124.627 143.906 125.83C143.137 127.184 143.771 129.245 143.528 130.963C143.177 133.454 144.088 134.352 146.617 133.982C147.824 133.804 149.105 134.108 150.306 133.916C153.151 133.467 153.994 134.577 153.745 137.292C153.603 138.898 153.138 139.241 151.594 139.274C147.375 139.266 143.159 139.045 138.963 138.614C137.041 138.468 137.52 137.332 137.513 136.348C137.499 131.637 137.513 126.913 137.513 122.183Z" fill="#2D4505"/>
<path d="M68.7817 122.619C68.7817 117.994 68.8694 113.369 68.7413 108.745C68.6873 106.842 69.0178 105.864 71.2499 106.155C74.4127 106.564 77.6024 105.818 80.8259 106.703C81.9856 106.955 83.049 107.523 83.8937 108.341C84.7384 109.159 85.33 110.195 85.6004 111.328C86.7536 115.444 87.1245 119.633 84.8586 123.55C84.4403 124.246 83.8638 124.838 83.1738 125.28C82.4839 125.721 81.6991 126.001 80.8808 126.097C80.0624 126.193 79.2325 126.102 78.4556 125.833C77.6788 125.563 76.976 125.121 76.4021 124.541C75.8491 123.94 75.2894 123.379 75.5793 122.559C75.8693 121.74 76.6988 122.13 77.299 122.024C79.8953 121.588 81.3452 119.382 80.8596 116.124C80.4887 113.693 80.0571 111.143 76.3616 111.387C74.6285 111.5 74.1092 111.863 74.1295 113.601C74.2239 121.291 74.062 128.981 74.2374 136.665C74.2913 139.043 73.327 139.228 71.3511 139.268C69.3752 139.307 68.6536 138.852 68.7278 136.744C68.9166 132.067 68.7817 127.343 68.7817 122.619Z" fill="#2D4505"/>
<path d="M119.359 120.102C119.359 116.138 119.427 112.174 119.359 108.21C119.319 106.67 119.73 106.102 121.382 106.148C125.429 106.261 129.475 106.194 133.474 106.181C134.627 106.181 135.807 106.023 135.551 107.78C135.355 109.141 135.483 110.727 133.453 110.793C131.658 110.93 129.854 110.93 128.059 110.793C125.725 110.529 125.085 111.52 125.415 113.554C125.422 113.664 125.422 113.775 125.415 113.885C125.415 119.996 125.415 120.069 131.552 120.042C133.46 120.042 134.249 120.293 134.249 122.48C134.29 124.944 132.968 124.713 131.349 124.72C125.388 124.72 125.388 124.766 125.388 130.752C125.388 132.509 125.435 134.267 125.388 136.037C125.388 136.698 125.88 137.702 124.666 137.88C124.293 137.985 123.899 137.996 123.521 137.911C123.143 137.827 122.792 137.65 122.502 137.398C120.701 135.713 119.13 134.095 119.299 131.313C119.481 127.574 119.359 123.834 119.359 120.102Z" fill="#2D4505"/>
<path d="M183.613 106.214C185.407 106.214 187.207 106.214 189.008 106.214C190.593 106.214 192.292 105.646 192.204 108.494C192.123 110.898 191.638 111.975 189.075 111.506C187.18 111.156 186.621 111.949 186.654 113.819C186.769 120.194 186.594 126.57 186.762 132.978C186.816 135.198 186.088 137.24 185.899 139.387C185.71 141.369 184.173 142.122 182.042 141.957C179.54 141.759 180.693 139.975 180.693 139.01C180.585 130.871 180.551 122.731 180.693 114.565C180.727 112.273 180.389 111.011 177.678 111.473C175.736 111.804 174.421 111.625 174.455 108.91C174.495 106.406 175.399 106.003 177.571 106.181C179.567 106.34 181.596 106.214 183.613 106.214Z" fill="#2D4505"/>
<path d="M204.214 125.625C204.214 119.903 204.214 114.182 204.214 108.447C204.214 107.707 203.587 106.571 204.889 106.254C205.384 106.18 205.89 106.24 206.353 106.426C206.816 106.612 207.219 106.918 207.519 107.311C208.828 108.776 209.559 110.65 209.582 112.596C209.488 120.743 209.582 128.882 209.522 137.041C209.522 138.812 209.38 140.292 212.023 139.988C213.008 139.876 214.047 140.543 215.213 140.609C219.219 140.84 220.75 143.172 219.657 146.945C219.388 147.863 219.077 147.665 218.309 147.526C214.647 146.866 210.958 146.37 207.269 145.848C205.057 145.531 203.958 144.718 204.086 142.129C204.403 136.638 204.208 131.128 204.214 125.625Z" fill="#2D4505"/>
<path d="M199.494 125.539C199.494 131.142 199.494 136.77 199.494 142.36C199.494 143.159 199.77 145.128 198.462 144.342C197.154 143.556 194.139 145.478 194.139 142.234C194.139 131.663 194.187 121.093 194.079 110.568C194.079 109.016 195.09 108.19 195.758 107.199C196.1 106.766 196.568 106.444 197.099 106.275C197.631 106.107 198.202 106.099 198.738 106.254C200.175 106.677 199.474 107.906 199.487 108.731C199.527 114.341 199.494 119.95 199.494 125.539Z" fill="#2D4505"/>
<path d="M94.4079 122.341C94.4079 119.831 94.5158 117.307 94.4079 114.796C94.2798 112.438 95.7566 111.222 97.6583 111.163C99.56 111.103 100.565 112.484 100.531 114.572C100.443 119.824 100.497 125.077 100.531 130.329C100.531 132.357 99.4926 133.322 97.4425 133.295C95.3925 133.269 94.4416 132.218 94.4618 130.223C94.4079 127.6 94.4079 124.971 94.4079 122.341Z" fill="#958B44"/>
</svg>
