<svg xmlns="http://www.w3.org/2000/svg" viewBox="0 0 281.31 384.86"><defs><style>.cls-1,.cls-2{fill:#fff;stroke:#000;stroke-miterlimit:10;}.cls-2{stroke-width:0.1px;}.cls-3{fill:#356e48;}</style></defs><title>BrandRecurso 5adress</title><g id="Capa_2" data-name="Capa 2"><g id="Capa_1-2" data-name="Capa 1"><path class="cls-1" d="M137.58.5h6a7.85,7.85,0,0,0,5.24,0h4.48c7.23,1,14.59.8,21.71,2.86C229.58,19.21,264,54.72,277.44,110c6.48,26.66,3.07,53.05-5.53,78.94-11.91,35.88-30.25,68.45-50.7,99.93-20,30.82-42.44,59.87-66.31,87.79-3.05,3.57-6.07,7.33-11.33,7.73h-6c-5.12-.36-8.09-4-11.09-7.45-9.64-11.14-18.92-22.58-28-34.21C76.44,314.29,56,284.76,38.32,253.34,24.83,229.32,13,204.51,6,177.77-6.51,130.42,2.23,87.37,33.36,49.41,52.91,25.58,78.12,10.44,108,2.89c6.32-1.6,12.82-1.22,19.16-2.39h5.23A7.85,7.85,0,0,0,137.58.5Z"/><path class="cls-2" d="M137.58.5a4.41,4.41,0,0,1-5.24,0Z"/><path class="cls-2" d="M148.81.5a4.41,4.41,0,0,1-5.24,0Z"/><path class="cls-3" d="M210.27,139.5a69.92,69.92,0,0,1-69.5,70c-38.43.18-69.88-31.3-69.9-70s31.38-70.08,69.88-70A69.89,69.89,0,0,1,210.27,139.5Z"/></g></g></svg>