<svg xmlns="http://www.w3.org/2000/svg" viewBox="0 0 384.6 290.33"><defs><style>.cls-1{fill:#fff;}.cls-1,.cls-2{stroke:#000;stroke-miterlimit:10;}.cls-2{fill:none;}</style></defs><title>BrandRecurso 7email</title><g id="Capa_2" data-name="Capa 2"><g id="Capa_1-2" data-name="Capa 1"><path class="cls-1" d="M.5,249.32V54.38c2.73-1.37,4.49.74,6.34,2q25.56,17,51.06,34.07L160.59,159a57.3,57.3,0,0,0,63.17-.17q69.72-46.53,139.42-93.12c5.29-3.53,10.52-7.18,15.91-10.55,3.85-2.4,4.91-1.72,4.91,2.83,0,63.59-.2,127.19.1,190.78.12,24.32-19.79,38.11-35.56,40.32a78.3,78.3,0,0,1-10.81.71q-146.45,0-292.91,0c-11.39,0-21.71-3-30.51-10.34-8.08-6.73-13.44-15-13.43-26C.7,252.11,1.27,250.65.5,249.32Z"/><path class="cls-2" d="M1.16,253.19a1.84,1.84,0,0,1-.66-.12v-3.75A4.52,4.52,0,0,1,1.16,253.19Z"/><path class="cls-1" d="M192.06,147.39a35.93,35.93,0,0,1-20.74-6.25Q88.69,85.82,5.93,30.7c-2.77-1.85-3.15-3.24-1.68-6.13C11.82,9.73,23.85,1.78,40.38.56,41.5.48,42.62.51,43.75.51q148.33,0,296.67,0c18.31,0,31.66,8.17,39.73,24.8,1.08,2.23,1,3.47-1.33,5Q295.44,85.85,212.18,141.56A35.25,35.25,0,0,1,192.06,147.39Z"/></g></g></svg>