<svg xmlns="http://www.w3.org/2000/svg" viewBox="0 0 217.33 223.25"><defs><style>.cls-1{fill:#fff;stroke:#000;stroke-miterlimit:10;}</style></defs><title>BrandRecurso 8phone</title><g id="Capa_2" data-name="Capa 2"><g id="Capa_1-2" data-name="Capa 1"><path class="cls-1" d="M.52,42.68C.28,33.43,2.43,25.26,9.76,18.79,15.26,13.94,20,8.22,26.37,4.34c8.65-5.28,17.07-5.28,25,1A75.1,75.1,0,0,1,75.32,38.66c2.79,7.5,1.11,14.49-4,20.64A104.62,104.62,0,0,1,60.7,69.86,10,10,0,0,0,57.51,80a42.06,42.06,0,0,0,7.06,15.56,265.44,265.44,0,0,0,57.94,60.6,40.92,40.92,0,0,0,14.88,7.57,10.72,10.72,0,0,0,11-3c3.15-3.19,6.42-6.28,9.86-9.17,6.9-5.8,14.72-7.2,23-3.61a74.62,74.62,0,0,1,30.27,23.12c7,9.17,7,18.18.42,27.63-5.34,7.65-12.16,14-19.43,19.62-6.6,5.15-14.78,4.79-22.65,3.79-19.41-2.46-36.81-10.49-53.15-20.72-44.84-28.08-79.95-65.29-103.49-113C6.12,74.07,1.07,59,.52,42.68Z"/><path class="cls-1" d="M199.86,108.31c.14,7.86.14,7.73-6.29,7.74-2.58,0-3.31-.71-3.36-3.35-.94-42-30.26-75.94-71.39-82.65a53.24,53.24,0,0,0-12.28-.92c-2,.14-2.56-.6-2.5-2.53.3-8.59-2-7.62,7.45-7,44.8,3,80.31,35.59,87.45,79.95C199.5,103,199.68,106.51,199.86,108.31Z"/><path class="cls-1" d="M170.51,115.32c-5.56-.07-5.56-.07-5.76-5.17-1-27.16-23.56-51.64-50.48-54.88-1.36-.16-2.73-.29-4.07-.56-1.89-.38-4.74.92-5.52-.86-.93-2.11-.42-4.89-.39-7.38S106.2,45,107.35,45c15.14.47,28.85,5.13,40.73,14.62,16.41,13.1,25,30.27,26.41,51.23C174.74,114.64,173.83,116.28,170.51,115.32Z"/><path class="cls-1" d="M144.17,114.52c-4.44,1.16-5.23-1-5.57-4.81-1.37-15.4-14.53-28.14-29.87-28.91-3.42-.17-4-1.3-4-4.37.17-5.77,0-5.77,5.81-5.3,20.31,1.63,37.6,20.36,38.05,41C148.72,116.6,145.55,113.82,144.17,114.52Z"/></g></g></svg>